<svg xmlns="http://www.w3.org/2000/svg" viewBox="0 0 512 512">
  <rect width="512" height="512" rx="96" fill="#f7f7f2" />
  <circle cx="256" cy="256" r="184" fill="#1f6f61" />
  <circle cx="256" cy="256" r="130" fill="#f7f7f2" />
  <path
    fill="#2563eb"
    d="M292 117c79 19 138 90 138 174 0 21-4 41-10 60l-69-27c3-11 5-23 5-35 0-42-26-78-63-93l-1-79Z"
  />
  <path
    fill="#1f6f61"
    d="M132 253h76l31-84c7-18 32-19 39-1l38 98 13-31c4-10 14-17 25-17h78c4 24 3 48-3 72h-60l-29 67c-8 18-33 18-41-1l-38-98-27 74c-4 11-14 18-25 18h-84a129 129 0 0 1 7-97Z"
  />
  <circle cx="256" cy="256" r="48" fill="#f7f7f2" />
</svg>
