<svg xmlns="http://www.w3.org/2000/svg" viewBox="0 0 64 64">
  <path
    fill="#1f6f61"
    d="M32 6c14.36 0 26 11.64 26 26S46.36 58 32 58 6 46.36 6 32 17.64 6 32 6Zm0 8c-9.94 0-18 8.06-18 18s8.06 18 18 18 18-8.06 18-18-8.06-18-18-18Z"
  />
  <path
    fill="#2563eb"
    d="M36 16c6.69 1.72 11.64 7.8 11.64 15.02 0 1.87-.33 3.66-.94 5.32l-7.28-2.94c.25-.78.38-1.61.38-2.48 0-3.47-2.15-6.43-5.19-7.63L36 16Z"
  />
  <path
    fill="#1f6f61"
    d="M19.6 31.66h7.2l2.54-6.86c.44-1.2 2.13-1.22 2.6-.03l3.18 8.02 1.02-2.35c.23-.52.72-.86 1.29-.86h6.97a12.57 12.57 0 0 1-.08 4.84h-5.12l-2.04 4.71c-.49 1.13-2.1 1.1-2.56-.04l-3.18-8.02-2.17 5.87c-.2.55-.73.92-1.31.92h-8.17a12.48 12.48 0 0 1-.17-6.2Z"
  />
  <circle cx="32" cy="32" r="5.4" fill="#f7f7f2" />
</svg>
